# xmcd
#
# Track frame offsets: 
#        150
#        17923
#        36290
#        52252
#        69716
#        86233
#        104597
#        121825
#        135012
#        150896
#        170780
#
# Disc length: 2495 seconds
#
# Revision: 0
# Processed by: cddbd v1.5.2PL0 Copyright (c) Steve Scherf et al.
# Submitted via: ExactAudioCopy v0.99pb4
#
DISCID=9309bd0b
DTITLE=Koop Arponen - New Town
DYEAR=2009
DGENRE=Southern Rock
TTITLE0=Every Song I Hear
TTITLE1=Everything I'm Not
TTITLE2=Sweet Words And A Lonely Night Away
TTITLE3=Innocent Eyes
TTITLE4=Love Is Cool
TTITLE5=You're The Reason
TTITLE6=Broadway Sky
TTITLE7=Loosing You
TTITLE8=I Don't Regret Anything
TTITLE9=Voices Of The Past
TTITLE10=Insomnia
EXTD=
EXTT0=
EXTT1=
EXTT2=
EXTT3=
EXTT4=
EXTT5=
EXTT6=
EXTT7=
EXTT8=
EXTT9=
EXTT10=
PLAYORDER=
